<svg width="118" height="23" viewBox="0 0 118 23" fill="none" xmlns="http://www.w3.org/2000/svg">
<g clip-path="url(#clip0)">
<path d="M25.027 20.1346C26.9293 20.1346 28.3022 19.2579 28.997 18.1165L31.0316 19.2744C29.824 21.1436 27.7233 22.3842 24.9774 22.3842C20.5443 22.3842 17.6 19.2744 17.6 15.1391C17.6 11.0699 20.5113 7.89398 24.812 7.89398C28.9639 7.89398 31.6767 11.3015 31.6767 15.1722C31.6767 15.5361 31.6436 15.8835 31.594 16.2474H20.0481C20.5113 18.7286 22.4631 20.1346 25.027 20.1346ZM20.0316 14.1466H29.2285C28.815 11.4173 26.8631 10.1601 24.7955 10.1601C22.215 10.1601 20.4285 11.7481 20.0316 14.1466Z" fill="white"/>
<path d="M34.406 0.599243H36.8045V22.0368H34.406V0.599243Z" fill="white"/>
<path d="M54.2722 8.25789V22.0368H51.8737V19.6714C50.7654 21.3586 49.012 22.4007 46.6631 22.4007C42.8421 22.4007 39.6992 19.2414 39.6992 15.1556C39.6992 11.0699 42.8421 7.91052 46.6631 7.91052C49.012 7.91052 50.7654 8.95263 51.8737 10.6398V8.27443H54.2722V8.25789ZM51.8737 15.1391C51.8737 12.3271 49.7564 10.2098 46.9774 10.2098C44.215 10.2098 42.0977 12.3271 42.0977 15.1391C42.0977 17.9511 44.215 20.0684 46.9774 20.0684C49.7564 20.0684 51.8737 17.9511 51.8737 15.1391Z" fill="white"/>
<path d="M76.6361 8.25787L72.3684 22.0368H69.9203L66.6947 11.8473L63.4691 22.0368H61.021L56.7534 8.25787H59.2676L62.2947 18.7285L65.5368 8.25787H67.8526L71.0947 18.7451L74.1218 8.25787H76.6361Z" fill="white"/>
<path d="M92.3669 8.25789V22.0368H89.9684V19.6714C88.8601 21.3586 87.1067 22.4007 84.7579 22.4007C80.9368 22.4007 77.7939 19.2414 77.7939 15.1556C77.7939 11.0699 80.9368 7.91052 84.7579 7.91052C87.1067 7.91052 88.8601 8.95263 89.9684 10.6398V8.27443H92.3669V8.25789ZM89.9684 15.1391C89.9684 12.3271 87.8511 10.2098 85.0721 10.2098C82.3097 10.2098 80.1924 12.3271 80.1924 15.1391C80.1924 17.9511 82.3097 20.0684 85.0721 20.0684C87.8511 20.0684 89.9684 17.9511 89.9684 15.1391Z" fill="white"/>
<path d="M102.689 8.00977V10.5241C100.621 10.4413 98.3879 11.4835 98.3879 14.7421V22.0368H95.9894V8.25789H98.3879V10.5737C99.2646 8.63834 100.952 8.00977 102.689 8.00977Z" fill="white"/>
<path d="M110.943 20.1346C112.845 20.1346 114.218 19.2579 114.913 18.1165L116.947 19.2744C115.74 21.1436 113.639 22.3842 110.893 22.3842C106.46 22.3842 103.516 19.2744 103.516 15.1391C103.516 11.0699 106.427 7.89398 110.728 7.89398C114.88 7.89398 117.592 11.3015 117.592 15.1722C117.592 15.5361 117.559 15.8835 117.51 16.2474H105.964C106.427 18.7286 108.395 20.1346 110.943 20.1346ZM105.964 14.1466H115.161C114.747 11.4173 112.795 10.1601 110.728 10.1601C108.147 10.1601 106.344 11.7481 105.964 14.1466Z" fill="white"/>
<path d="M14.7218 0.599243C14.7218 0.599243 14.7218 11.9797 14.7218 15.1391C14.7218 18.1 12.5053 22.3842 7.11277 22.3842C3.29172 22.3842 0.148865 19.2248 0.148865 15.1391C0.148865 11.0534 3.29172 7.89398 7.11277 7.89398C9.46165 7.89398 11.215 8.93609 12.3233 10.6233V0.599243H14.7218ZM12.3233 15.1391C12.3233 12.3271 10.206 10.2098 7.42706 10.2098C4.66465 10.2098 2.54736 12.3271 2.54736 15.1391C2.54736 17.9511 4.66465 20.0684 7.42706 20.0684C10.206 20.0684 12.3233 17.9511 12.3233 15.1391Z" fill="white"/>
<path d="M12.3233 15.1391C12.3233 12.3271 10.206 10.2098 7.42706 10.2098C4.66466 10.2098 2.54736 12.3271 2.54736 15.1391C2.54736 17.9511 4.66466 20.0684 7.42706 20.0684C10.206 20.0684 12.3233 17.9511 12.3233 15.1391Z" fill="#EF463C"/>
</g>
<defs>
<clipPath id="clip0">
<rect width="117.609" height="22" fill="white" transform="translate(0 0.5)"/>
</clipPath>
</defs>
</svg>
